<svg viewBox="0 0 500 500" xmlns="http://www.w3.org/2000/svg">
  <defs></defs>
  <g transform="matrix(2.530643, 0, 0, 2.530643, -80.783859, -85.038483)" style="">
    <path class="st0" d="M78.3,141.2L78.3,141.2l19-58.4l-6.2,0c-32,0-39.1,19.5-41.2,24.8l-12.3,37.9l45.8,33.3
		C72.9,165.7,75.3,150.5,78.3,141.2z" style="fill: rgb(255, 255, 255);"></path>
    <path class="st0" d="M148.9,68.8c-9.9-30.4-30.6-31.2-36.4-31.5c-19.7,0-39.9,0-39.9,0L55.2,91.1c9.3-13.9,24.5-16.4,34.2-16.4v0
		l61.4,0L148.9,68.8z" style="fill: rgb(255, 255, 255);"></path>
    <path class="st0" d="M156.1,64.8L156.1,64.8l19,58.4l5-3.6c25.9-18.8,20.2-38.7,18.7-44.3l-12.3-37.9l-56.6,0
		C146.1,41.9,153.1,55.5,156.1,64.8z" style="fill: rgb(255, 255, 255);"></path>
    <path class="st0" d="M122.7,161.3l-34.3-24.9l-1.9,5.9c-7.1,22-0.6,34.8,5.3,41.6L122.7,161.3z" style="fill: rgb(255, 255, 255);"></path>
    <path class="st0" d="M97.8,189.4l12.2,37.4l111.8-81.2l-17.5-53.8c0.6,16.7-10.2,27.7-18,33.4l0,0L97.8,189.4z" style="fill: rgb(255, 255, 255);"></path>
  </g>
</svg>